PathFileType	4	(X/Y/Z)	C:/Users/opensim2020/Desktop/walking_exp_matlab/subject01_walking14_straight_01.trc	
DataRate	CameraRate	NumFrames	NumMarkers	Units	OrigDataRate	OrigDataStartFrame	OrigNumFrames	
100.00	100.00	6	42	mm	100.00	691	106	
Frame#	Time	LFHD			RFHD			LBHD			RBHD			C7			T10			CLAV			STRN			RBAK			LSHO			LUPA			LELB			LFRM			LWRA			LWRB			LFIN			RSHO			RUPA			RELB			RFRM			RWRA			RWRB			RFIN			LASI			RASI			LPSI			RPSI			LTHI			LKNE			LTIB			LANK			LHEE			LTOE			RTHI			RKNE			RTIB			RANK			RHEE			RTOE			*39			*40			*41			
		X1	Y1	Z1	X2	Y2	Z2	X3	Y3	Z3	X4	Y4	Z4	X5	Y5	Z5	X6	Y6	Z6	X7	Y7	Z7	X8	Y8	Z8	X9	Y9	Z9	X10	Y10	Z10	X11	Y11	Z11	X12	Y12	Z12	X13	Y13	Z13	X14	Y14	Z14	X15	Y15	Z15	X16	Y16	Z16	X17	Y17	Z17	X18	Y18	Z18	X19	Y19	Z19	X20	Y20	Z20	X21	Y21	Z21	X22	Y22	Z22	X23	Y23	Z23	X24	Y24	Z24	X25	Y25	Z25	X26	Y26	Z26	X27	Y27	Z27	X28	Y28	Z28	X29	Y29	Z29	X30	Y30	Z30	X31	Y31	Z31	X32	Y32	Z32	X33	Y33	Z33	X34	Y34	Z34	X35	Y35	Z35	X36	Y36	Z36	X37	Y37	Z37	X38	Y38	Z38	X39	Y39	Z39	X40	Y40	Z40	X41	Y41	Z41	X42	Y42	Z42	

14	0.130	1430.03638	-676.03522	1660.00549	1537.27954	-639.64600	1667.03613	1462.74731	-787.27881	1615.99915	1577.12500	-751.42645	1621.91821	1493.25354	-820.39069	1427.49365	1487.33118	-869.78809	1135.31067	1489.60278	-680.26892	1351.97009	1482.11902	-644.28052	1196.03723	1561.40271	-885.35400	1235.83838	1330.22632	-739.16919	1385.33704	1239.54565	-773.92194	1205.39490	1235.81580	-804.43256	1054.87085	1215.98047	-765.82391	945.52008	1236.51196	-688.39667	831.16064	1215.03027	-743.32898	824.15625	1207.48621	-695.80011	754.72009	1641.66150	-742.89655	1385.38928	1735.55066	-825.14996	1193.53125	1743.28577	-829.74945	1067.01599	1773.87109	-792.76227	950.00470	1760.52661	-697.16479	845.58997	1793.06250	-744.09802	838.10461	1800.79834	-694.50000	769.79272	1379.81287	-703.36914	922.86493	1595.49866	-710.42267	923.97351	1427.97644	-889.45007	943.41046	1574.26489	-891.02539	945.35498	1357.35120	-730.51794	582.78772	1391.33289	-738.76715	451.06873	1397.52869	-799.78436	270.59525	1468.98022	-847.67798	64.25581	1519.11523	-900.17725	39.73484	1476.38123	-702.89563	29.93594	1680.26526	-702.41144	602.13031	1671.64539	-670.00983	446.21606	1678.42004	-814.19861	346.54102	1636.93945	-967.87585	208.23007	1581.34021	-1025.23279	210.11382	1652.04346	-909.33441	78.25702	1517.46375	-655.21710	1700.37012	-3101.90552	1973.20093	1023.50342	-3140.75244	2012.48962	1022.11707 
15	0.140	1430.68787	-663.33319	1660.37842	1537.98645	-627.06836	1667.29761	1463.36499	-774.58014	1616.57446	1577.72412	-738.94464	1622.38367	1493.81543	-808.26550	1428.06665	1488.28931	-857.93042	1135.94275	1490.22571	-668.26758	1352.47839	1482.88708	-632.31744	1196.53906	1562.05383	-873.36786	1236.48047	1330.90662	-727.17615	1385.86169	1240.19055	-761.19659	1205.94592	1236.14832	-789.64331	1054.67920	1217.22083	-746.29944	946.46649	1239.35840	-663.83008	836.21155	1217.69080	-718.35754	826.37268	1210.66675	-667.59790	759.47870	1642.27917	-730.89075	1385.98450	1735.83813	-814.36346	1194.47302	1743.33740	-819.76105	1068.04529	1773.75354	-785.30310	950.39008	1760.31091	-692.37158	843.59985	1792.94958	-739.39117	837.29059	1800.58618	-691.69360	767.73053	1380.58557	-692.19141	923.02698	1596.14734	-697.95709	925.31146	1430.61047	-878.16162	944.07062	1576.98486	-878.42389	946.30585	1358.46875	-724.92950	582.66339	1391.99829	-735.55231	450.93924	1398.03015	-798.45404	271.04990	1469.36414	-847.27643	64.73960	1519.69995	-899.81720	40.52817	1476.58447	-702.71765	29.99055	1681.00146	-682.57806	605.37628	1671.71362	-646.18115	450.62796	1679.51599	-786.77728	345.90460	1639.82104	-934.57343	200.47620	1584.99500	-992.62793	198.24615	1655.08948	-867.31525	75.07449	1518.15918	-642.49933	1700.67053	-3101.95215	1973.16235	1023.48877	-3140.65381	2012.51318	1022.15045 
16	0.150	1431.36340	-650.73254	1660.67297	1538.73633	-614.48663	1667.38977	1463.93774	-762.16309	1617.09937	1578.33228	-726.47968	1622.64551	1494.38245	-796.04755	1428.45471	1489.36841	-846.14508	1136.49365	1490.94958	-656.10803	1352.80005	1483.67126	-620.24536	1196.83813	1562.68750	-861.31610	1237.03857	1331.63416	-715.22076	1386.26782	1240.81909	-748.47980	1206.33008	1236.32813	-775.19440	1054.36621	1218.71045	-727.31323	947.65839	1241.92517	-639.59369	841.64331	1220.32727	-693.50433	829.09039	1213.56384	-639.67438	764.69659	1643.00757	-718.62646	1386.43042	1736.15967	-803.59424	1195.30457	1743.39917	-809.77600	1068.94360	1773.77539	-777.90491	950.71686	1760.28479	-687.41748	841.65454	1792.89258	-734.87469	836.44391	1800.39038	-688.90515	765.66895	1381.55872	-681.22693	922.96893	1596.80786	-685.67877	926.42712	1433.26343	-866.97980	944.78680	1579.67517	-866.23993	947.12799	1359.65454	-719.41296	582.71338	1392.36169	-732.50299	450.88226	1398.79211	-796.76520	271.46335	1469.76440	-847.00604	65.29627	1520.24438	-899.44727	41.57475	1476.49280	-702.70569	30.04719	1681.82056	-663.05780	608.69464	1671.66443	-623.26904	454.85901	1680.44897	-759.55170	344.55182	1642.57092	-900.41504	191.38419	1588.40540	-958.84985	185.27562	1658.21399	-824.76453	71.13831	1518.95947	-629.80963	1700.81189	-3102.07275	1973.10583	1023.36511	-3140.78857	2012.44580	1022.10590 
17	0.160	1432.16260	-638.04358	1660.82092	1539.48535	-601.94006	1667.39526	1464.55615	-749.62183	1617.37439	1578.94446	-714.02386	1622.78552	1495.05835	-783.75989	1428.73413	1490.41626	-834.16895	1136.83972	1491.66504	-643.85809	1352.95850	1484.46021	-608.21375	1196.91956	1563.21973	-849.20404	1237.50293	1332.37439	-703.09833	1386.51257	1241.48804	-735.86896	1206.61975	1236.60583	-760.47717	1054.08972	1219.86328	-707.99438	948.98932	1244.33215	-615.45142	847.74957	1222.90808	-668.73096	832.36139	1216.39990	-611.71503	770.80902	1643.70837	-706.43506	1386.63965	1736.45801	-792.84229	1196.03345	1743.49927	-799.82178	1069.77393	1773.81665	-770.53583	950.99323	1760.34253	-682.70490	839.78534	1793.00256	-730.06152	835.79028	1800.38184	-686.02692	763.68579	1382.75903	-670.06250	922.79205	1597.68640	-673.38092	927.43866	1435.61487	-855.53363	944.85364	1582.13599	-853.70306	947.58081	1360.79700	-713.57996	582.51941	1392.58472	-729.63855	450.68195	1399.54517	-795.03979	272.01810	1470.29663	-846.61737	65.81582	1521.45337	-898.48883	41.64107	1476.61243	-702.68878	30.06505	1682.59631	-644.00391	611.72614	1671.53430	-601.14703	459.00760	1681.40076	-732.78217	342.77237	1645.24451	-865.16003	181.44075	1591.50598	-923.93628	171.29962	1661.18005	-781.57654	67.17849	1519.78784	-617.20221	1700.84302	-3102.06519	1973.10620	1023.41766	-3140.83594	2012.57996	1022.15527 
18	0.170	1432.91199	-625.45636	1660.83167	1540.33057	-589.41510	1667.31287	1465.16797	-737.02667	1617.44116	1579.65222	-701.55267	1622.73303	1495.77307	-771.32361	1428.88696	1491.52783	-822.30817	1137.18799	1492.33887	-631.53772	1352.89417	1485.26099	-596.17993	1196.73523	1563.65588	-836.87109	1237.57019	1333.14417	-690.91821	1386.65894	1242.08972	-723.36151	1206.84546	1236.72510	-746.20380	1053.72888	1221.00244	-689.05902	950.62207	1246.56433	-591.61603	854.18640	1225.40430	-644.02991	835.99084	1219.03577	-584.03503	777.57416	1644.48083	-694.04559	1386.73975	1736.76563	-782.16266	1196.62329	1743.58252	-789.86359	1070.48206	1773.98108	-763.09259	951.24841	1760.56360	-677.78711	837.96631	1793.19067	-725.25751	835.14130	1800.37170	-682.99237	761.76178	1384.42273	-659.54236	922.27942	1598.69226	-661.18280	928.26868	1437.92920	-844.32520	944.94434	1584.52039	-841.39240	947.92133	1362.06995	-707.72723	582.41937	1393.26746	-726.35571	450.45279	1400.41235	-793.29913	272.52811	1471.00500	-846.03180	66.37514	1522.45654	-898.05988	42.89395	1476.91711	-702.35339	29.98960	1683.74207	-625.22668	614.59296	1671.40198	-579.92749	462.83395	1682.36023	-706.15070	340.29373	1647.74548	-829.40991	171.10873	1594.48547	-887.84137	156.86610	1664.65991	-737.78278	64.23708	1520.60059	-604.63739	1700.82800	-3101.98560	1973.17517	1023.39801	-3140.74463	2012.53174	1022.09076 
19	0.180	1433.69226	-612.87927	1660.84619	1541.14807	-576.87769	1667.15857	1465.89050	-724.44910	1617.37622	1580.39685	-689.02020	1622.55737	1496.49927	-758.81641	1428.87195	1492.68359	-810.29651	1137.37659	1493.15100	-619.05273	1352.74133	1486.15112	-583.97052	1196.48096	1564.30664	-824.64117	1237.75159	1333.95984	-678.72229	1386.64221	1242.77332	-710.90497	1206.87280	1236.97827	-731.69769	1053.41492	1222.18115	-669.97333	952.26813	1248.60681	-568.07495	861.07532	1227.75708	-619.56122	840.13409	1221.46545	-556.78375	784.78595	1645.24438	-681.66150	1386.71216	1737.10925	-771.27667	1197.03528	1743.71936	-779.87000	1071.05969	1774.21912	-755.57666	951.40527	1760.93225	-672.70892	836.18335	1793.54138	-720.31854	834.55133	1800.53235	-679.85504	759.94385	1385.53687	-648.16968	921.79114	1599.83350	-648.87799	928.97034	1440.15857	-833.13629	944.71680	1586.82874	-829.20770	947.83557	1363.30334	-701.76941	582.05139	1393.96692	-722.84912	450.31461	1401.35730	-791.32861	273.17566	1471.87427	-845.85870	67.39426	1523.44910	-897.58038	44.18505	1477.10828	-702.35919	30.02109	1684.85522	-607.01196	617.13782	1671.29089	-559.71490	466.20685	1683.45996	-679.65308	337.05157	1650.02771	-792.81891	160.37257	1596.89539	-850.46533	141.41536	1667.46375	-693.23724	60.81728	1521.46082	-592.13452	1700.68469	-3101.99609	1973.04895	1023.48718	-3140.70605	2012.57214	1022.09558 
